# xmcd
#
# Track frame offsets: 
#        150
#        18392
#        33387
#        50517
#        84637
#        101377
#        123697
#        147860
#        163630
#        177930
#        192787
#
# Disc length: 2741 seconds
#
# Revision: 2
# Processed by: cddbd v1.5PL3 Copyright (c) Steve Scherf et al.
# Submitted via: ExactAudioCopy v0.90b4
#
DISCID=8e0ab30b
DTITLE=The Charlie Daniels Band - Blues Hat
DYEAR=1997
DGENRE=Country
TTITLE0=Long Haired Country Boy
TTITLE1=Boogie Woogie Baltimore
TTITLE2=If It Would Satisfy You
TTITLE3=Hard Headed Woman
TTITLE4=New Orleans Parish Blues
TTITLE5=Birmingham Blues
TTITLE6=No Fool Like An Old Fool
TTITLE7=Blues Hat
TTITLE8=Deep Elm Blues
TTITLE9=Looking For My Mary Jane
TTITLE10=Gone Gone Blues
EXTD=\nYEAR: 1997  ID3G:   0
EXTT0=
EXTT1=
EXTT2=
EXTT3=
EXTT4=
EXTT5=
EXTT6=
EXTT7=
EXTT8=
EXTT9=
EXTT10=
PLAYORDER=
